<svg width="60" height="60" viewBox="0 0 60 60" fill="none" xmlns="http://www.w3.org/2000/svg">
<path d="M59.9999 30C60.0067 30.8795 59.7394 31.7392 59.2352 32.4597C58.731 33.1802 58.0149 33.7257 57.1865 34.0203L40.1886 40.2035L34.0099 57.204C33.7054 58.0246 33.1571 58.7324 32.4386 59.2323C31.7202 59.7321 30.866 60 29.9909 60C29.1157 60 28.2616 59.7321 27.5431 59.2323C26.8247 58.7324 26.2763 58.0246 25.9718 57.204L19.7932 40.2008L2.79519 34.0203C1.97475 33.7157 1.26717 33.1672 0.7675 32.4485C0.267827 31.7298 0 30.8754 0 30C0 29.1246 0.267827 28.2702 0.7675 27.5515C1.26717 26.8328 1.97475 26.2843 2.79519 25.9797L19.7932 19.7992L25.9718 2.79604C26.2763 1.97536 26.8247 1.26756 27.5431 0.767734C28.2616 0.267908 29.1157 0 29.9909 0C30.866 0 31.7202 0.267908 32.4386 0.767734C33.1571 1.26756 33.7054 1.97536 34.0099 2.79604L40.1912 19.7992L57.1865 25.9797C58.0149 26.2743 58.731 26.8198 59.2352 27.5403C59.7394 28.2608 60.0067 29.1205 59.9999 30Z" fill="#51B0A2"/>
</svg>
